<svg version="1.1" viewBox="0.0 0.0 263.0 259.0" fill="none" stroke="none" stroke-linecap="square" stroke-miterlimit="10" width="263" height="259" xmlns:xlink="http://www.w3.org/1999/xlink" xmlns="http://www.w3.org/2000/svg"><path fill="#dfebf2" d="M0 0L263.0 0L263.0 259.0L0 259.0L0 0Z" fill-rule="nonzero"/><path stroke="#1b1d1d" stroke-width="1.0" stroke-linecap="butt" d="M39.5 215.5L223.5 215.5" fill-rule="nonzero"/><path stroke="#aeb7bd" stroke-width="1.0" stroke-linecap="butt" d="M39.5 188.5L223.5 188.5" fill-rule="nonzero"/><path stroke="#aeb7bd" stroke-width="1.0" stroke-linecap="butt" d="M39.5 162.5L223.5 162.5" fill-rule="nonzero"/><path stroke="#aeb7bd" stroke-width="1.0" stroke-linecap="butt" d="M39.5 136.5L223.5 136.5" fill-rule="nonzero"/><path stroke="#aeb7bd" stroke-width="1.0" stroke-linecap="butt" d="M39.5 109.5L223.5 109.5" fill-rule="nonzero"/><path stroke="#aeb7bd" stroke-width="1.0" stroke-linecap="butt" d="M39.5 83.5L223.5 83.5" fill-rule="nonzero"/><clipPath id="id_0"><path d="M39.95 83.21667L223.05 83.21667L223.05 215.30127L39.95 215.30127L39.95 83.21667Z" clip-rule="nonzero"/></clipPath><path stroke="#000000" stroke-width="2.0" stroke-linecap="butt" stroke-opacity="0.0" clip-path="url(#id_0)" d="M215.0 215.0L201.0 215.0L201.0 101.0C201.0 99.89543 201.89543 99.0 203.0 99.0L213.0 99.0C214.10457 99.0 215.0 99.89543 215.0 101.0Z" fill-rule="nonzero"/><path fill="#3ebcd2" clip-path="url(#id_0)" d="M215.0 215.0L201.0 215.0L201.0 101.0C201.0 99.89543 201.89543 99.0 203.0 99.0L213.0 99.0C214.10457 99.0 215.0 99.89543 215.0 101.0Z" fill-rule="nonzero"/><path stroke="#000000" stroke-width="2.0" stroke-linecap="butt" stroke-opacity="0.0" clip-path="url(#id_0)" d="M193.0 215.0L179.0 215.0L179.0 127.0C179.0 125.89543 179.89543 125.0 181.0 125.0L191.0 125.0C192.10457 125.0 193.0 125.89543 193.0 127.0Z" fill-rule="nonzero"/><path fill="#3ebcd2" clip-path="url(#id_0)" d="M193.0 215.0L179.0 215.0L179.0 127.0C179.0 125.89543 179.89543 125.0 181.0 125.0L191.0 125.0C192.10457 125.0 193.0 125.89543 193.0 127.0Z" fill-rule="nonzero"/><path stroke="#000000" stroke-width="2.0" stroke-linecap="butt" stroke-opacity="0.0" clip-path="url(#id_0)" d="M171.0 215.0L157.0 215.0L157.0 151.0C157.0 149.89543 157.89543 149.0 159.0 149.0L169.0 149.0C170.10457 149.0 171.0 149.89543 171.0 151.0Z" fill-rule="nonzero"/><path fill="#3ebcd2" clip-path="url(#id_0)" d="M171.0 215.0L157.0 215.0L157.0 151.0C157.0 149.89543 157.89543 149.0 159.0 149.0L169.0 149.0C170.10457 149.0 171.0 149.89543 171.0 151.0Z" fill-rule="nonzero"/><path stroke="#000000" stroke-width="2.0" stroke-linecap="butt" stroke-opacity="0.0" clip-path="url(#id_0)" d="M149.0 215.0L135.0 215.0L135.0 180.0C135.0 178.89543 135.89543 178.0 137.0 178.0L147.0 178.0C148.10457 178.0 149.0 178.89543 149.0 180.0Z" fill-rule="nonzero"/><path fill="#3ebcd2" clip-path="url(#id_0)" d="M149.0 215.0L135.0 215.0L135.0 180.0C135.0 178.89543 135.89543 178.0 137.0 178.0L147.0 178.0C148.10457 178.0 149.0 178.89543 149.0 180.0Z" fill-rule="nonzero"/><path stroke="#000000" stroke-width="2.0" stroke-linecap="butt" stroke-opacity="0.0" clip-path="url(#id_0)" d="M128.0 215.0L114.0 215.0L114.0 194.0C114.0 192.89543 114.89543 192.0 116.0 192.0L126.0 192.0C127.10457 192.0 128.0 192.89543 128.0 194.0Z" fill-rule="nonzero"/><path fill="#3ebcd2" clip-path="url(#id_0)" d="M128.0 215.0L114.0 215.0L114.0 194.0C114.0 192.89543 114.89543 192.0 116.0 192.0L126.0 192.0C127.10457 192.0 128.0 192.89543 128.0 194.0Z" fill-rule="nonzero"/><path stroke="#000000" stroke-width="2.0" stroke-linecap="butt" stroke-opacity="0.0" clip-path="url(#id_0)" d="M106.0 215.0L92.0 215.0L92.0 198.0C92.0 196.89543 92.89543 196.0 94.0 196.0L104.0 196.0C105.10457 196.0 106.0 196.89543 106.0 198.0Z" fill-rule="nonzero"/><path fill="#3ebcd2" clip-path="url(#id_0)" d="M106.0 215.0L92.0 215.0L92.0 198.0C92.0 196.89543 92.89543 196.0 94.0 196.0L104.0 196.0C105.10457 196.0 106.0 196.89543 106.0 198.0Z" fill-rule="nonzero"/><path stroke="#000000" stroke-width="2.0" stroke-linecap="butt" stroke-opacity="0.0" clip-path="url(#id_0)" d="M84.0 215.0L70.0 215.0L70.0 198.0C70.0 196.89543 70.89543 196.0 72.0 196.0L82.0 196.0C83.10457 196.0 84.0 196.89543 84.0 198.0Z" fill-rule="nonzero"/><path fill="#3ebcd2" clip-path="url(#id_0)" d="M84.0 215.0L70.0 215.0L70.0 198.0C70.0 196.89543 70.89543 196.0 72.0 196.0L82.0 196.0C83.10457 196.0 84.0 196.89543 84.0 198.0Z" fill-rule="nonzero"/><path stroke="#000000" stroke-width="2.0" stroke-linecap="butt" stroke-opacity="0.0" clip-path="url(#id_0)" d="M62.0 215.0L48.0 215.0L48.0 199.0C48.0 197.89543 48.89543 197.0 50.0 197.0L60.0 197.0C61.10457 197.0 62.0 197.89543 62.0 199.0Z" fill-rule="nonzero"/><path fill="#3ebcd2" clip-path="url(#id_0)" d="M62.0 215.0L48.0 215.0L48.0 199.0C48.0 197.89543 48.89543 197.0 50.0 197.0L60.0 197.0C61.10457 197.0 62.0 197.89543 62.0 199.0Z" fill-rule="nonzero"/><path stroke="#963c4c" stroke-width="4.0" stroke-linecap="butt" clip-path="url(#id_0)" d="M208.2485 90.6134L186.32036 156.12737L164.39221 205.79117L142.46407 202.62114L120.53593 211.07455L98.60779 213.18791L76.67964 213.18791L54.751495 212.13123" fill-rule="nonzero"/><path fill="#000000" fill-opacity="0.0" clip-path="url(#id_0)" d="M211.2485 90.6134C211.2485 92.270256 209.90535 93.6134 208.2485 93.6134C206.59164 93.6134 205.2485 92.270256 205.2485 90.6134C205.2485 88.95655 206.59164 87.6134 208.2485 87.6134C209.90535 87.6134 211.2485 88.95655 211.2485 90.6134Z" fill-rule="nonzero"/><path fill="#000000" fill-opacity="0.0" clip-path="url(#id_0)" d="M189.32036 156.12737C189.32036 157.78423 187.97722 159.12737 186.32036 159.12737C184.6635 159.12737 183.32036 157.78423 183.32036 156.12737C183.32036 154.4705 184.6635 153.12737 186.32036 153.12737C187.97722 153.12737 189.32036 154.4705 189.32036 156.12737Z" fill-rule="nonzero"/><path fill="#000000" fill-opacity="0.0" clip-path="url(#id_0)" d="M167.39221 205.79117C167.39221 207.44803 166.04907 208.79117 164.39221 208.79117C162.73537 208.79117 161.39221 207.44803 161.39221 205.79117C161.39221 204.13432 162.73537 202.79117 164.39221 202.79117C166.04907 202.79117 167.39221 204.13432 167.39221 205.79117Z" fill-rule="nonzero"/><path fill="#000000" fill-opacity="0.0" clip-path="url(#id_0)" d="M145.46407 202.62114C145.46407 204.278 144.12093 205.62114 142.46407 205.62114C140.80722 205.62114 139.46407 204.278 139.46407 202.62114C139.46407 200.9643 140.80722 199.62114 142.46407 199.62114C144.12093 199.62114 145.46407 200.9643 145.46407 202.62114Z" fill-rule="nonzero"/><path fill="#000000" fill-opacity="0.0" clip-path="url(#id_0)" d="M123.53593 211.07455C123.53593 212.73141 122.19278 214.07455 120.53593 214.07455C118.879074 214.07455 117.53593 212.73141 117.53593 211.07455C117.53593 209.4177 118.879074 208.07455 120.53593 208.07455C122.19278 208.07455 123.53593 209.4177 123.53593 211.07455Z" fill-rule="nonzero"/><path fill="#000000" fill-opacity="0.0" clip-path="url(#id_0)" d="M101.60779 213.18791C101.60779 214.84476 100.26464 216.18791 98.60779 216.18791C96.95093 216.18791 95.60779 214.84476 95.60779 213.18791C95.60779 211.53105 96.95093 210.18791 98.60779 210.18791C100.26464 210.18791 101.60779 211.53105 101.60779 213.18791Z" fill-rule="nonzero"/><path fill="#000000" fill-opacity="0.0" clip-path="url(#id_0)" d="M79.67964 213.18791C79.67964 214.84476 78.336494 216.18791 76.67964 216.18791C75.02279 216.18791 73.67964 214.84476 73.67964 213.18791C73.67964 211.53105 75.02279 210.18791 76.67964 210.18791C78.336494 210.18791 79.67964 211.53105 79.67964 213.18791Z" fill-rule="nonzero"/><path fill="#000000" fill-opacity="0.0" clip-path="url(#id_0)" d="M57.751495 212.13123C57.751495 213.78809 56.40835 215.13123 54.751495 215.13123C53.094643 215.13123 51.751495 213.78809 51.751495 212.13123C51.751495 210.47438 53.094643 209.13123 54.751495 209.13123C56.40835 209.13123 57.751495 210.47438 57.751495 212.13123Z" fill-rule="nonzero"/><path fill="#46bdc6" d="M30.246876 210.67627Q31.496876 210.67627 32.2 211.5669Q33.028126 212.61377 33.028126 215.0669Q33.028126 217.5044 32.184376 218.5669Q31.496876 219.4419 30.246876 219.4419Q28.996876 219.4419 28.215626 218.48877Q27.45 217.52002 27.45 215.05127Q27.45 212.61377 28.29375 211.55127Q28.996876 210.67627 30.246876 210.67627ZM30.246876 212.03564Q29.95 212.03564 29.715626 212.23877Q29.48125 212.42627 29.340626 212.91064Q29.184376 213.55127 29.184376 215.0669Q29.184376 216.58252 29.325 217.14502Q29.48125 217.70752 29.715626 217.89502Q29.95 218.08252 30.246876 218.08252Q30.54375 218.08252 30.778126 217.89502Q31.0125 217.70752 31.1375 217.20752Q31.309376 216.58252 31.309376 215.0669Q31.309376 213.55127 31.153126 212.98877Q31.0125 212.42627 30.778126 212.23877Q30.54375 212.03564 30.246876 212.03564Z" fill-rule="nonzero"/><path fill="#46bdc6" d="M26.028126 191.35309L26.028126 192.88434L20.246876 192.88434Q20.340626 192.00934 20.809376 191.24371Q21.278126 190.46246 22.66875 189.18121Q23.778126 188.14996 24.028126 187.77496Q24.371876 187.25934 24.371876 186.75934Q24.371876 186.21246 24.075 185.91559Q23.778126 185.61871 23.2625 185.61871Q22.746876 185.61871 22.434376 185.93121Q22.1375 186.24371 22.090626 186.96246L20.45 186.80621Q20.590626 185.44684 21.35625 184.85309Q22.1375 184.25934 23.29375 184.25934Q24.575 184.25934 25.29375 184.94684Q26.028126 185.63434 26.028126 186.64996Q26.028126 187.22809 25.809376 187.75934Q25.60625 188.27496 25.153126 188.85309Q24.85625 189.22809 24.075 189.94684Q23.29375 190.66559 23.090626 190.89996Q22.8875 191.13434 22.746876 191.35309L26.028126 191.35309ZM27.48125 190.68121L29.121876 190.50934Q29.2 191.05621 29.54375 191.38434Q29.8875 191.71246 30.340626 191.71246Q30.85625 191.71246 31.215626 191.29059Q31.575 190.86871 31.575 190.02496Q31.575 189.24371 31.215626 188.85309Q30.85625 188.44684 30.29375 188.44684Q29.575 188.44684 29.0125 189.07184L27.684376 188.88434L28.528126 184.41559L32.8875 184.41559L32.8875 185.94684L29.778126 185.94684L29.5125 187.41559Q30.075 187.13434 30.6375 187.13434Q31.73125 187.13434 32.496876 187.93121Q33.2625 188.72809 33.2625 189.99371Q33.2625 191.05621 32.653126 191.89996Q31.809376 193.02496 30.325 193.02496Q29.1375 193.02496 28.3875 192.39996Q27.6375 191.75934 27.48125 190.68121Z" fill-rule="nonzero"/><path fill="#46bdc6" d="M20.48125 164.2643L22.121876 164.09242Q22.2 164.6393 22.54375 164.96742Q22.8875 165.29555 23.340626 165.29555Q23.85625 165.29555 24.215626 164.87367Q24.575 164.4518 24.575 163.60805Q24.575 162.8268 24.215626 162.43617Q23.85625 162.02992 23.29375 162.02992Q22.575 162.02992 22.0125 162.65492L20.684376 162.46742L21.528126 157.99867L25.8875 157.99867L25.8875 159.52992L22.778126 159.52992L22.5125 160.99867Q23.075 160.71742 23.6375 160.71742Q24.73125 160.71742 25.496876 161.5143Q26.2625 162.31117 26.2625 163.5768Q26.2625 164.6393 25.653126 165.48305Q24.809376 166.60805 23.325 166.60805Q22.1375 166.60805 21.3875 165.98305Q20.6375 165.34242 20.48125 164.2643ZM30.246876 157.84242Q31.496876 157.84242 32.2 158.73305Q33.028126 159.77992 33.028126 162.23305Q33.028126 164.67055 32.184376 165.73305Q31.496876 166.60805 30.246876 166.60805Q28.996876 166.60805 28.215626 165.65492Q27.45 164.68617 27.45 162.21742Q27.45 159.77992 28.29375 158.71742Q28.996876 157.84242 30.246876 157.84242ZM30.246876 159.2018Q29.95 159.2018 29.715626 159.40492Q29.48125 159.59242 29.340626 160.0768Q29.184376 160.71742 29.184376 162.23305Q29.184376 163.74867 29.325 164.31117Q29.48125 164.87367 29.715626 165.06117Q29.95 165.24867 30.246876 165.24867Q30.54375 165.24867 30.778126 165.06117Q31.0125 164.87367 31.1375 164.37367Q31.309376 163.74867 31.309376 162.23305Q31.309376 160.71742 31.153126 160.15492Q31.0125 159.59242 30.778126 159.40492Q30.54375 159.2018 30.246876 159.2018Z" fill-rule="nonzero"/><path fill="#46bdc6" d="M20.465626 133.113L20.465626 131.58176L26.090626 131.58176L26.090626 132.76926Q25.3875 133.45676 24.66875 134.738Q23.95 136.01926 23.575 137.47238Q23.2 138.90988 23.2 140.0505L21.621876 140.0505Q21.653126 138.26926 22.340626 136.4255Q23.04375 134.56613 24.2 133.113L20.465626 133.113ZM27.48125 137.84738L29.121876 137.6755Q29.2 138.22238 29.54375 138.5505Q29.8875 138.87863 30.340626 138.87863Q30.85625 138.87863 31.215626 138.45676Q31.575 138.03488 31.575 137.19113Q31.575 136.40988 31.215626 136.01926Q30.85625 135.613 30.29375 135.613Q29.575 135.613 29.0125 136.238L27.684376 136.0505L28.528126 131.58176L32.8875 131.58176L32.8875 133.113L29.778126 133.113L29.5125 134.58176Q30.075 134.3005 30.6375 134.3005Q31.73125 134.3005 32.496876 135.09738Q33.2625 135.89426 33.2625 137.15988Q33.2625 138.22238 32.653126 139.06613Q31.809376 140.19113 30.325 140.19113Q29.1375 140.19113 28.3875 139.56613Q27.6375 138.9255 27.48125 137.84738Z" fill-rule="nonzero"/><path fill="#46bdc6" d="M17.66875 113.63358L16.028126 113.63358L16.028126 107.43046Q15.121875 108.27421 13.903125 108.68046L13.903125 107.18046Q14.54375 106.97733 15.29375 106.38358Q16.059376 105.78983 16.340626 105.00858L17.66875 105.00858L17.66875 113.63358ZM23.246876 105.00858Q24.496876 105.00858 25.2 105.89921Q26.028126 106.94608 26.028126 109.39921Q26.028126 111.83671 25.184376 112.89921Q24.496876 113.77421 23.246876 113.77421Q21.996876 113.77421 21.215626 112.82108Q20.45 111.85233 20.45 109.38358Q20.45 106.94608 21.29375 105.88358Q21.996876 105.00858 23.246876 105.00858ZM23.246876 106.36796Q22.95 106.36796 22.715626 106.57108Q22.48125 106.75858 22.340626 107.24296Q22.184376 107.88358 22.184376 109.39921Q22.184376 110.91483 22.325 111.47733Q22.48125 112.03983 22.715626 112.22733Q22.95 112.41483 23.246876 112.41483Q23.54375 112.41483 23.778126 112.22733Q24.0125 112.03983 24.1375 111.53983Q24.309376 110.91483 24.309376 109.39921Q24.309376 107.88358 24.153126 107.32108Q24.0125 106.75858 23.778126 106.57108Q23.54375 106.36796 23.246876 106.36796ZM30.246876 105.00858Q31.496876 105.00858 32.2 105.89921Q33.028126 106.94608 33.028126 109.39921Q33.028126 111.83671 32.184376 112.89921Q31.496876 113.77421 30.246876 113.77421Q28.996876 113.77421 28.215626 112.82108Q27.45 111.85233 27.45 109.38358Q27.45 106.94608 28.29375 105.88358Q28.996876 105.00858 30.246876 105.00858ZM30.246876 106.36796Q29.95 106.36796 29.715626 106.57108Q29.48125 106.75858 29.340626 107.24296Q29.184376 107.88358 29.184376 109.39921Q29.184376 110.91483 29.325 111.47733Q29.48125 112.03983 29.715626 112.22733Q29.95 112.41483 30.246876 112.41483Q30.54375 112.41483 30.778126 112.22733Q31.0125 112.03983 31.1375 111.53983Q31.309376 110.91483 31.309376 109.39921Q31.309376 107.88358 31.153126 107.32108Q31.0125 106.75858 30.778126 106.57108Q30.54375 106.36796 30.246876 106.36796Z" fill-rule="nonzero"/><path fill="#46bdc6" d="M17.66875 87.21667L16.028126 87.21667L16.028126 81.01354Q15.121875 81.85729 13.903125 82.26354L13.903125 80.76354Q14.54375 80.56042 15.29375 79.96667Q16.059376 79.37292 16.340626 78.59167L17.66875 78.59167L17.66875 87.21667ZM26.028126 85.68542L26.028126 87.21667L20.246876 87.21667Q20.340626 86.34167 20.809376 85.57604Q21.278126 84.79479 22.66875 83.51354Q23.778126 82.48229 24.028126 82.10729Q24.371876 81.59167 24.371876 81.09167Q24.371876 80.54479 24.075 80.24792Q23.778126 79.95104 23.2625 79.95104Q22.746876 79.95104 22.434376 80.26354Q22.1375 80.57604 22.090626 81.29479L20.45 81.13854Q20.590626 79.77917 21.35625 79.18542Q22.1375 78.59167 23.29375 78.59167Q24.575 78.59167 25.29375 79.27917Q26.028126 79.96667 26.028126 80.98229Q26.028126 81.56042 25.809376 82.09167Q25.60625 82.60729 25.153126 83.18542Q24.85625 83.56042 24.075 84.27917Q23.29375 84.99792 23.090626 85.23229Q22.8875 85.46667 22.746876 85.68542L26.028126 85.68542ZM27.48125 85.01354L29.121876 84.84167Q29.2 85.38854 29.54375 85.71667Q29.8875 86.04479 30.340626 86.04479Q30.85625 86.04479 31.215626 85.62292Q31.575 85.20104 31.575 84.35729Q31.575 83.57604 31.215626 83.18542Q30.85625 82.77917 30.29375 82.77917Q29.575 82.77917 29.0125 83.40417L27.684376 83.21667L28.528126 78.74792L32.8875 78.74792L32.8875 80.27917L29.778126 80.27917L29.5125 81.74792Q30.075 81.46667 30.6375 81.46667Q31.73125 81.46667 32.496876 82.26354Q33.2625 83.06042 33.2625 84.32604Q33.2625 85.38854 32.653126 86.23229Q31.809376 87.35729 30.325 87.35729Q29.1375 87.35729 28.3875 86.73229Q27.6375 86.09167 27.48125 85.01354Z" fill-rule="nonzero"/><path fill="#963c4c" d="M232.34688 210.67627Q233.59688 210.67627 234.3 211.5669Q235.12813 212.61377 235.12813 215.0669Q235.12813 217.5044 234.28438 218.5669Q233.59688 219.4419 232.34688 219.4419Q231.09688 219.4419 230.31563 218.48877Q229.55 217.52002 229.55 215.05127Q229.55 212.61377 230.39375 211.55127Q231.09688 210.67627 232.34688 210.67627ZM232.34688 212.03564Q232.05 212.03564 231.81563 212.23877Q231.58125 212.42627 231.44063 212.91064Q231.28438 213.55127 231.28438 215.0669Q231.28438 216.58252 231.425 217.14502Q231.58125 217.70752 231.81563 217.89502Q232.05 218.08252 232.34688 218.08252Q232.64375 218.08252 232.87813 217.89502Q233.1125 217.70752 233.2375 217.20752Q233.40938 216.58252 233.40938 215.0669Q233.40938 213.55127 233.25313 212.98877Q233.1125 212.42627 232.87813 212.23877Q232.64375 212.03564 232.34688 212.03564Z" fill-rule="nonzero"/><path fill="#963c4c" d="M235.12813 191.35309L235.12813 192.88434L229.34688 192.88434Q229.44063 192.00934 229.90938 191.24371Q230.37813 190.46246 231.76875 189.18121Q232.87813 188.14996 233.12813 187.77496Q233.47188 187.25934 233.47188 186.75934Q233.47188 186.21246 233.175 185.91559Q232.87813 185.61871 232.3625 185.61871Q231.84688 185.61871 231.53438 185.93121Q231.2375 186.24371 231.19063 186.96246L229.55 186.80621Q229.69063 185.44684 230.45625 184.85309Q231.2375 184.25934 232.39375 184.25934Q233.675 184.25934 234.39375 184.94684Q235.12813 185.63434 235.12813 186.64996Q235.12813 187.22809 234.90938 187.75934Q234.70625 188.27496 234.25313 188.85309Q233.95625 189.22809 233.175 189.94684Q232.39375 190.66559 232.19063 190.89996Q231.9875 191.13434 231.84688 191.35309L235.12813 191.35309ZM236.58125 190.68121L238.22188 190.50934Q238.3 191.05621 238.64375 191.38434Q238.9875 191.71246 239.44063 191.71246Q239.95625 191.71246 240.31563 191.29059Q240.675 190.86871 240.675 190.02496Q240.675 189.24371 240.31563 188.85309Q239.95625 188.44684 239.39375 188.44684Q238.675 188.44684 238.1125 189.07184L236.78438 188.88434L237.62813 184.41559L241.9875 184.41559L241.9875 185.94684L238.87813 185.94684L238.6125 187.41559Q239.175 187.13434 239.7375 187.13434Q240.83125 187.13434 241.59688 187.93121Q242.3625 188.72809 242.3625 189.99371Q242.3625 191.05621 241.75313 191.89996Q240.90938 193.02496 239.425 193.02496Q238.2375 193.02496 237.4875 192.39996Q236.7375 191.75934 236.58125 190.68121Z" fill-rule="nonzero"/><path fill="#963c4c" d="M229.58125 164.2643L231.22188 164.09242Q231.3 164.6393 231.64375 164.96742Q231.9875 165.29555 232.44063 165.29555Q232.95625 165.29555 233.31563 164.87367Q233.675 164.4518 233.675 163.60805Q233.675 162.8268 233.31563 162.43617Q232.95625 162.02992 232.39375 162.02992Q231.675 162.02992 231.1125 162.65492L229.78438 162.46742L230.62813 157.99867L234.9875 157.99867L234.9875 159.52992L231.87813 159.52992L231.6125 160.99867Q232.175 160.71742 232.7375 160.71742Q233.83125 160.71742 234.59688 161.5143Q235.3625 162.31117 235.3625 163.5768Q235.3625 164.6393 234.75313 165.48305Q233.90938 166.60805 232.425 166.60805Q231.2375 166.60805 230.4875 165.98305Q229.7375 165.34242 229.58125 164.2643ZM239.34688 157.84242Q240.59688 157.84242 241.3 158.73305Q242.12813 159.77992 242.12813 162.23305Q242.12813 164.67055 241.28438 165.73305Q240.59688 166.60805 239.34688 166.60805Q238.09688 166.60805 237.31563 165.65492Q236.55 164.68617 236.55 162.21742Q236.55 159.77992 237.39375 158.71742Q238.09688 157.84242 239.34688 157.84242ZM239.34688 159.2018Q239.05 159.2018 238.81563 159.40492Q238.58125 159.59242 238.44063 160.0768Q238.28438 160.71742 238.28438 162.23305Q238.28438 163.74867 238.425 164.31117Q238.58125 164.87367 238.81563 165.06117Q239.05 165.24867 239.34688 165.24867Q239.64375 165.24867 239.87813 165.06117Q240.1125 164.87367 240.2375 164.37367Q240.40938 163.74867 240.40938 162.23305Q240.40938 160.71742 240.25313 160.15492Q240.1125 159.59242 239.87813 159.40492Q239.64375 159.2018 239.34688 159.2018Z" fill-rule="nonzero"/><path fill="#963c4c" d="M229.56563 133.113L229.56563 131.58176L235.19063 131.58176L235.19063 132.76926Q234.4875 133.45676 233.76875 134.738Q233.05 136.01926 232.675 137.47238Q232.3 138.90988 232.3 140.0505L230.72188 140.0505Q230.75313 138.26926 231.44063 136.4255Q232.14375 134.56613 233.3 133.113L229.56563 133.113ZM236.58125 137.84738L238.22188 137.6755Q238.3 138.22238 238.64375 138.5505Q238.9875 138.87863 239.44063 138.87863Q239.95625 138.87863 240.31563 138.45676Q240.675 138.03488 240.675 137.19113Q240.675 136.40988 240.31563 136.01926Q239.95625 135.613 239.39375 135.613Q238.675 135.613 238.1125 136.238L236.78438 136.0505L237.62813 131.58176L241.9875 131.58176L241.9875 133.113L238.87813 133.113L238.6125 134.58176Q239.175 134.3005 239.7375 134.3005Q240.83125 134.3005 241.59688 135.09738Q242.3625 135.89426 242.3625 137.15988Q242.3625 138.22238 241.75313 139.06613Q240.90938 140.19113 239.425 140.19113Q238.2375 140.19113 237.4875 139.56613Q236.7375 138.9255 236.58125 137.84738Z" fill-rule="nonzero"/><path fill="#963c4c" d="M233.76875 113.63358L232.12813 113.63358L232.12813 107.43046Q231.22188 108.27421 230.00313 108.68046L230.00313 107.18046Q230.64375 106.97733 231.39375 106.38358Q232.15938 105.78983 232.44063 105.00858L233.76875 105.00858L233.76875 113.63358ZM239.34688 105.00858Q240.59688 105.00858 241.3 105.89921Q242.12813 106.94608 242.12813 109.39921Q242.12813 111.83671 241.28438 112.89921Q240.59688 113.77421 239.34688 113.77421Q238.09688 113.77421 237.31563 112.82108Q236.55 111.85233 236.55 109.38358Q236.55 106.94608 237.39375 105.88358Q238.09688 105.00858 239.34688 105.00858ZM239.34688 106.36796Q239.05 106.36796 238.81563 106.57108Q238.58125 106.75858 238.44063 107.24296Q238.28438 107.88358 238.28438 109.39921Q238.28438 110.91483 238.425 111.47733Q238.58125 112.03983 238.81563 112.22733Q239.05 112.41483 239.34688 112.41483Q239.64375 112.41483 239.87813 112.22733Q240.1125 112.03983 240.2375 111.53983Q240.40938 110.91483 240.40938 109.39921Q240.40938 107.88358 240.25313 107.32108Q240.1125 106.75858 239.87813 106.57108Q239.64375 106.36796 239.34688 106.36796ZM246.34688 105.00858Q247.59688 105.00858 248.3 105.89921Q249.12813 106.94608 249.12813 109.39921Q249.12813 111.83671 248.28438 112.89921Q247.59688 113.77421 246.34688 113.77421Q245.09688 113.77421 244.31563 112.82108Q243.55 111.85233 243.55 109.38358Q243.55 106.94608 244.39375 105.88358Q245.09688 105.00858 246.34688 105.00858ZM246.34688 106.36796Q246.05 106.36796 245.81563 106.57108Q245.58125 106.75858 245.44063 107.24296Q245.28438 107.88358 245.28438 109.39921Q245.28438 110.91483 245.425 111.47733Q245.58125 112.03983 245.81563 112.22733Q246.05 112.41483 246.34688 112.41483Q246.64375 112.41483 246.87813 112.22733Q247.1125 112.03983 247.2375 111.53983Q247.40938 110.91483 247.40938 109.39921Q247.40938 107.88358 247.25313 107.32108Q247.1125 106.75858 246.87813 106.57108Q246.64375 106.36796 246.34688 106.36796Z" fill-rule="nonzero"/><path fill="#963c4c" d="M233.76875 87.21667L232.12813 87.21667L232.12813 81.01354Q231.22188 81.85729 230.00313 82.26354L230.00313 80.76354Q230.64375 80.56042 231.39375 79.96667Q232.15938 79.37292 232.44063 78.59167L233.76875 78.59167L233.76875 87.21667ZM242.12813 85.68542L242.12813 87.21667L236.34688 87.21667Q236.44063 86.34167 236.90938 85.57604Q237.37813 84.79479 238.76875 83.51354Q239.87813 82.48229 240.12813 82.10729Q240.47188 81.59167 240.47188 81.09167Q240.47188 80.54479 240.175 80.24792Q239.87813 79.95104 239.3625 79.95104Q238.84688 79.95104 238.53438 80.26354Q238.2375 80.57604 238.19063 81.29479L236.55 81.13854Q236.69063 79.77917 237.45625 79.18542Q238.2375 78.59167 239.39375 78.59167Q240.675 78.59167 241.39375 79.27917Q242.12813 79.96667 242.12813 80.98229Q242.12813 81.56042 241.90938 82.09167Q241.70625 82.60729 241.25313 83.18542Q240.95625 83.56042 240.175 84.27917Q239.39375 84.99792 239.19063 85.23229Q238.9875 85.46667 238.84688 85.68542L242.12813 85.68542ZM243.58125 85.01354L245.22188 84.84167Q245.3 85.38854 245.64375 85.71667Q245.9875 86.04479 246.44063 86.04479Q246.95625 86.04479 247.31563 85.62292Q247.675 85.20104 247.675 84.35729Q247.675 83.57604 247.31563 83.18542Q246.95625 82.77917 246.39375 82.77917Q245.675 82.77917 245.1125 83.40417L243.78438 83.21667L244.62813 78.74792L248.9875 78.74792L248.9875 80.27917L245.87813 80.27917L245.6125 81.74792Q246.175 81.46667 246.7375 81.46667Q247.83125 81.46667 248.59688 82.26354Q249.3625 83.06042 249.3625 84.32604Q249.3625 85.38854 248.75313 86.23229Q247.90938 87.35729 246.425 87.35729Q245.2375 87.35729 244.4875 86.73229Q243.7375 86.09167 243.58125 85.01354Z" fill-rule="nonzero"/><path fill="#000000" d="M209.68481 233.98499L210.40297 234.70314L206.3813 238.72482Q206.11613 238.45966 205.9504 238.11714Q205.69629 237.55367 205.62999 236.82446Q205.57475 236.08421 205.69629 234.92412Q205.87306 233.11215 205.74048 232.29456Q205.61894 231.46593 205.1991 231.04608Q204.75716 230.60414 204.13844 230.62624Q203.50867 230.63728 203.00044 231.14551Q202.45906 231.68689 202.45906 232.32771Q202.45906 232.96852 203.02254 233.5541L202.18285 234.2391Q201.3984 233.29999 201.46469 232.34981Q201.53099 231.37753 202.40382 230.5047Q203.27666 229.63187 204.27103 229.60977Q205.2654 229.58768 205.98355 230.30583Q206.34814 230.67043 206.54703 231.17867Q206.7459 231.6648 206.79008 232.41609Q206.83429 233.1453 206.71275 234.61476Q206.60226 235.85219 206.61331 236.26099Q206.62436 236.64769 206.7017 236.9681L209.68481 233.98499ZM213.81697 231.28914L212.35855 229.83073L209.729 232.4603L209.04399 231.77528L207.8839 225.06882L208.49156 224.46115L212.42485 228.39442L213.24245 227.57683L213.92744 228.26184L213.10986 229.07944L214.56827 230.53784L213.81697 231.28914ZM211.67355 229.14572L208.94455 226.41673L209.7732 231.04608L211.67355 229.14572Z" fill-rule="nonzero"/><path fill="#000000" d="M187.75667 233.98499L188.47482 234.70314L184.45316 238.72482Q184.18799 238.45966 184.02226 238.11714Q183.76814 237.55367 183.70184 236.82446Q183.6466 236.08421 183.76814 234.92412Q183.94492 233.11215 183.81233 232.29457Q183.6908 231.46593 183.27095 231.04608Q182.82901 230.60414 182.2103 230.62624Q181.58052 230.63728 181.0723 231.14552Q180.53091 231.68689 180.53091 232.32771Q180.53091 232.96852 181.09439 233.5541L180.2547 234.2391Q179.47026 233.29999 179.53654 232.34981Q179.60284 231.37753 180.47568 230.5047Q181.34851 229.63187 182.34288 229.60977Q183.33725 229.58768 184.0554 230.30583Q184.42 230.67043 184.61888 231.17867Q184.81775 231.6648 184.86194 232.41609Q184.90614 233.14531 184.7846 234.61476Q184.67412 235.8522 184.68517 236.26099Q184.69621 236.64769 184.77356 236.9681L187.75667 233.98499ZM187.9003 232.0736L188.55215 231.22285Q189.30347 231.7311 189.90009 231.709Q190.48566 231.67584 190.9276 231.2339Q191.45793 230.70357 191.45793 229.97437Q191.45793 229.24516 190.91655 228.70378Q190.40831 228.19556 189.73436 228.2066Q189.0604 228.19556 188.5411 228.71484Q188.33119 228.92476 188.09917 229.33356L187.52464 228.58226Q187.61304 228.51596 187.65723 228.47177Q188.13231 227.99669 188.2649 227.37796Q188.39748 226.73715 187.8782 226.21786Q187.4694 225.80907 186.92802 225.82011Q186.3756 225.82011 185.93365 226.26205Q185.50276 226.69295 185.48067 227.26747Q185.46962 227.83095 185.93365 228.44968L185.04977 229.06839Q184.4421 228.19556 184.51944 227.30063Q184.58572 226.39464 185.3039 225.67648Q185.80107 225.1793 186.44188 224.98042Q187.07166 224.77051 187.65723 224.91414Q188.2428 225.05777 188.66264 225.47762Q189.04935 225.86432 189.17088 226.40569Q189.28136 226.93602 189.0604 227.53264Q189.71225 227.12384 190.40831 227.22328Q191.09332 227.31168 191.68994 227.9083Q192.48544 228.70378 192.4523 229.84178Q192.43019 230.96873 191.54631 231.85263Q190.75082 232.64812 189.7454 232.70335Q188.72893 232.74756 187.9003 232.0736Z" fill-rule="nonzero"/><path fill="#000000" d="M165.82852 233.98499L166.54668 234.70314L162.52501 238.72481Q162.25984 238.45964 162.09412 238.11714Q161.84001 237.55367 161.77371 236.82446Q161.71848 236.08421 161.84001 234.9241Q162.01678 233.11215 161.8842 232.29456Q161.76266 231.46591 161.34282 231.04607Q160.90088 230.60413 160.28217 230.62622Q159.65239 230.63727 159.14417 231.14551Q158.60278 231.68689 158.60278 232.3277Q158.60278 232.96852 159.16626 233.5541L158.32657 234.2391Q157.54211 233.29997 157.60841 232.3498Q157.6747 231.37753 158.54753 230.5047Q159.42038 229.63185 160.41475 229.60976Q161.40912 229.58766 162.12727 230.30582Q162.49187 230.67043 162.69073 231.17865Q162.88962 231.6648 162.9338 232.41609Q162.978 233.1453 162.85648 234.61475Q162.74599 235.85219 162.75703 236.26099Q162.76808 236.64769 162.84543 236.9681L165.82852 233.98499ZM170.77827 229.03523L171.49643 229.75339L167.47476 233.77505Q167.2096 233.5099 167.04387 233.16739Q166.78975 232.60391 166.72346 231.87471Q166.66821 231.13446 166.78975 229.97437Q166.96652 228.1624 166.83394 227.3448Q166.71242 226.51617 166.29257 226.09633Q165.85063 225.65439 165.2319 225.67648Q164.60214 225.68753 164.0939 226.19576Q163.55254 226.73714 163.55254 227.37796Q163.55254 228.01877 164.116 228.60434L163.27632 229.28935Q162.49187 228.35022 162.55817 227.40005Q162.62445 226.42778 163.49728 225.55495Q164.37012 224.68211 165.36449 224.66002Q166.35886 224.63791 167.07701 225.35606Q167.44162 225.72067 167.64049 226.22891Q167.83937 226.71504 167.88356 227.46634Q167.92775 228.19554 167.80621 229.66501Q167.69574 230.90244 167.70679 231.31123Q167.71783 231.69794 167.79517 232.01834L170.77827 229.03523Z" fill-rule="nonzero"/><path fill="#000000" d="M143.90038 233.98499L144.61855 234.70314L140.59686 238.72481Q140.33171 238.45964 140.16597 238.11714Q139.91187 237.55367 139.84557 236.82446Q139.79033 236.08421 139.91187 234.92412Q140.08864 233.11215 139.95605 232.29456Q139.83452 231.46591 139.41467 231.04607Q138.97273 230.60413 138.35402 230.62622Q137.72424 230.63728 137.21602 231.14551Q136.67464 231.68689 136.67464 232.3277Q136.67464 232.96852 137.23811 233.5541L136.39842 234.2391Q135.61397 233.29997 135.68027 232.34981Q135.74655 231.37753 136.6194 230.5047Q137.49223 229.63187 138.4866 229.60976Q139.48097 229.58766 140.19913 230.30582Q140.56372 230.67043 140.7626 231.17865Q140.96147 231.6648 141.00566 232.41609Q141.04987 233.1453 140.92833 234.61475Q140.81784 235.85219 140.82889 236.26099Q140.83994 236.64769 140.91728 236.9681L143.90038 233.98499ZM148.45238 230.8693L147.71213 231.60954L142.96126 226.85867Q142.93916 227.389 142.76239 228.09612Q142.5856 228.78113 142.36464 229.24516L141.64648 228.52701Q141.96689 227.60997 142.02213 226.73714Q142.07738 225.84221 141.8785 225.24559L142.35359 224.7705L148.45238 230.8693Z" fill-rule="nonzero"/><path fill="#000000" d="M121.97224 233.98499L122.69039 234.70314L118.668724 238.72481Q118.40356 238.45964 118.23783 238.11714Q117.98371 237.55367 117.91742 236.82446Q117.86218 236.08421 117.98371 234.92412Q118.16049 233.11215 118.02791 232.29456Q117.90637 231.46591 117.48653 231.04608Q117.044586 230.60413 116.425865 230.62624Q115.796104 230.63728 115.287865 231.14551Q114.74649 231.68689 114.74649 232.32771Q114.74649 232.96852 115.30997 233.5541L114.470276 234.2391Q113.68583 233.29997 113.75212 232.34981Q113.81841 231.37753 114.691246 230.5047Q115.56408 229.63187 116.55845 229.60976Q117.55282 229.58766 118.27097 230.30582Q118.635574 230.67043 118.83445 231.17865Q119.033325 231.6648 119.07752 232.41609Q119.12171 233.1453 119.000175 234.61476Q118.889694 235.85219 118.90074 236.26099Q118.91179 236.64769 118.98913 236.9681L121.97224 233.98499ZM120.723755 230.68147Q119.64099 229.59871 119.2101 228.72588Q118.76816 227.842 118.8455 227.05756Q118.93389 226.26205 119.5968 225.59914Q120.08294 225.113 120.646416 224.94728Q121.22094 224.77051 121.83965 224.90309Q122.44733 225.02461 123.11024 225.42236Q123.77315 225.82011 124.67913 226.72609Q125.75084 227.7978 126.18173 228.67064Q126.62367 229.53242 126.54633 230.33897Q126.468994 231.12341 125.79504 231.79738Q124.922195 232.67021 123.784195 232.54868Q122.43628 232.394 120.723755 230.68147ZM121.4861 229.91913Q122.97765 231.41068 123.82839 231.5543Q124.67913 231.69794 125.18736 231.18971Q125.70664 230.67043 125.55196 229.83073Q125.40833 228.98 123.91678 227.48845Q122.41418 225.98584 121.57449 225.85326Q120.7348 225.69858 120.20447 226.22891Q119.696236 226.73714 119.81777 227.4774Q119.9835 228.41652 121.4861 229.91913Z" fill-rule="nonzero"/><path fill="#000000" d="M99.64635 235.81905L98.90609 236.5593L94.15522 231.80843Q94.13312 232.33876 93.956345 233.04587Q93.779564 233.73087 93.55859 234.19492L92.84044 233.47676Q93.16085 232.55972 93.216095 231.68689Q93.27133 230.79196 93.072464 230.19534L93.54755 229.72025L99.64635 235.81905ZM100.497086 232.16197L101.14895 231.37753Q101.74557 231.79738 102.231705 231.77528Q102.71784 231.73108 103.115585 231.33334Q103.45809 230.99083 103.557526 230.58203Q103.65697 230.15114 103.56858 229.7313Q103.46914 229.3004 103.13768 228.74799Q102.79518 228.18451 102.33114 227.72046Q102.275894 227.66522 102.17646 227.56578Q102.309044 228.1403 102.154366 228.75903Q101.98863 229.3667 101.535645 229.81969Q100.77329 230.58203 99.71264 230.55994Q98.64093 230.5268 97.745995 229.63187Q96.81792 228.70378 96.79582 227.59894Q96.784775 226.48303 97.60236 225.66544Q98.187935 225.07986 98.99448 224.91414Q99.81207 224.73735 100.66281 225.07986Q101.5025 225.41132 102.6184 226.52722Q103.778496 227.68732 104.22044 228.6375Q104.662384 229.56557 104.51875 230.4384Q104.37512 231.28914 103.71221 231.95206Q102.99405 232.67021 102.154366 232.7365Q101.30363 232.79175 100.497086 232.16197ZM100.86169 226.42778Q100.22087 225.78697 99.502716 225.75383Q98.79561 225.70963 98.30947 226.19577Q97.81229 226.69295 97.84543 227.4774Q97.87858 228.23975 98.53044 228.89162Q99.104965 229.46614 99.82312 229.47719Q100.541275 229.48824 101.04951 228.98Q101.568794 228.46072 101.535645 227.76466Q101.5025 227.0686 100.86169 226.42778Z" fill-rule="nonzero"/><path fill="#000000" d="M77.7182 235.81905L76.97795 236.5593L72.22708 231.80843Q72.20498 232.33875 72.028206 233.04585Q71.851425 233.73087 71.630455 234.1949L70.9123 233.47675Q71.23271 232.55972 71.28795 231.68689Q71.34319 230.79196 71.14432 230.19533L71.61941 229.72025L77.7182 235.81905ZM77.7182 229.23412Q77.077385 229.52138 76.53601 229.44403Q75.99463 229.3446 75.563736 228.91371Q74.900826 228.2508 74.92292 227.32271Q74.95607 226.38359 75.74052 225.59914Q76.53601 224.80365 77.48618 224.78156Q78.436356 224.75945 79.09927 225.42236Q79.51912 225.84221 79.607506 226.37254Q79.69589 226.90286 79.41968 227.53264Q80.159935 227.14594 80.85599 227.26747Q81.55205 227.389 82.115524 227.95248Q82.88892 228.72588 82.86683 229.80864Q82.855774 230.88034 81.9498 231.78633Q81.05486 232.68126 79.97211 232.70335Q78.88935 232.72545 78.09386 231.92996Q77.49723 231.33333 77.3978 230.63728Q77.30941 229.93018 77.7182 229.23412ZM76.29294 228.11821Q76.72384 228.5491 77.27626 228.5491Q77.83974 228.53806 78.28168 228.09612Q78.71257 227.66522 78.723625 227.12384Q78.723625 226.57141 78.325874 226.17366Q77.917076 225.76486 77.3536 225.77592Q76.779076 225.77592 76.35923 226.19576Q75.92834 226.62665 75.91729 227.19012Q75.91729 227.74255 76.29294 228.11821ZM78.867256 231.15656Q79.18766 231.47696 79.6296 231.63165Q80.082596 231.77528 80.54663 231.6427Q81.01067 231.51012 81.35317 231.1676Q81.88351 230.63728 81.88351 229.95227Q81.894554 229.25621 81.36422 228.72588Q80.822845 228.1845 80.11574 228.1845Q79.40863 228.1845 78.867256 228.72588Q78.33692 229.25621 78.34797 229.95227Q78.34797 230.63728 78.867256 231.15656Z" fill-rule="nonzero"/><path fill="#000000" d="M46.28831 243.88448L47.006466 244.60263L42.984795 248.62431Q42.71963 248.35915 42.5539 248.01663Q42.299786 247.45316 42.233494 246.72395Q42.178253 245.9837 42.299786 244.82361Q42.476562 243.01164 42.343983 242.19406Q42.222446 241.36542 41.8026 240.94557Q41.36066 240.50363 40.741943 240.52573Q40.112175 240.53677 39.603943 241.04501Q39.062565 241.58638 39.062565 242.2272Q39.062565 242.86801 39.626038 243.45358L38.78635 244.1386Q38.001904 243.19948 38.068195 242.2493Q38.134487 241.27702 39.00732 240.40419Q39.880157 239.53136 40.874523 239.50926Q41.868893 239.48717 42.587048 240.20532Q42.951653 240.56992 43.150524 241.07816Q43.3494 241.56429 43.393593 242.31558Q43.437786 243.0448 43.316254 244.51425Q43.20577 245.75168 43.216816 246.16048Q43.227863 246.54718 43.305202 246.86758L46.28831 243.88448ZM45.039825 240.58096Q43.95707 239.49821 43.526176 238.62538Q43.084232 237.74149 43.16157 236.95705Q43.24996 236.16154 43.912872 235.49864Q44.39901 235.0125 44.962486 234.84677Q45.53701 234.67 46.155727 234.80258Q46.763397 234.92412 47.42631 235.32185Q48.089222 235.7196 48.995205 236.6256Q50.066914 237.6973 50.497807 238.57013Q50.939747 239.43192 50.862408 240.23846Q50.78507 241.0229 50.111107 241.69687Q49.238274 242.5697 48.100273 242.44817Q46.75235 242.29349 45.039825 240.58096ZM45.802174 239.81862Q47.293728 241.31017 48.144466 241.4538Q48.995205 241.59743 49.503437 241.0892Q50.02272 240.56992 49.86804 239.73022Q49.724407 238.87949 48.232853 237.38794Q46.73025 235.88533 45.890564 235.75276Q45.050873 235.59807 44.520542 236.1284Q44.01231 236.63664 44.133846 237.37689Q44.299572 238.31601 45.802174 239.81862ZM55.79006 235.81905L55.049805 236.5593L50.29893 231.80843Q50.276836 232.33876 50.10006 233.04587Q49.923283 233.73087 49.702312 234.19492L48.984154 233.47676Q49.30456 232.55972 49.359806 231.68689Q49.41505 230.79196 49.216175 230.19534L49.69126 229.72025L55.79006 235.81905ZM52.696465 228.35023L51.97831 227.63208L55.91159 223.69879L56.497166 224.28436Q56.54136 225.47762 56.99435 227.07965Q57.44734 228.65959 58.220737 230.05171Q58.75107 231.04608 59.601807 232.0073L58.828407 232.7807Q58.1213 232.0515 57.37 230.76987Q56.62975 229.47719 56.187805 228.04088Q55.756912 226.5935 55.679573 225.36713L52.696465 228.35023Z" fill-rule="nonzero"/><path fill="#3ebcd2" d="M12.95 56.083332C12.95 55.531048 13.397716 55.083332 13.95 55.083332L23.95 55.083332C24.502285 55.083332 24.95 55.531048 24.95 56.083332L24.95 66.083336C24.95 66.63562 24.502285 67.083336 23.95 67.083336L13.95 67.083336C13.397716 67.083336 12.95 66.63562 12.95 66.083336Z" fill-rule="nonzero"/><path fill="#1a1a1a" d="M33.684376 64.583336L33.684376 57.427086L36.371876 57.427086Q37.184376 57.427086 37.684376 57.645836Q38.184376 57.864586 38.465626 58.31771Q38.746876 58.75521 38.746876 59.25521Q38.746876 59.708336 38.496876 60.114586Q38.246876 60.520836 37.746876 60.770836Q38.3875 60.958336 38.73125 61.427086Q39.090626 61.88021 39.090626 62.50521Q39.090626 63.00521 38.871876 63.44271Q38.66875 63.88021 38.35625 64.114586Q38.04375 64.34896 37.559376 64.47396Q37.090626 64.583336 36.41875 64.583336L33.684376 64.583336ZM34.6375 60.427086L36.184376 60.427086Q36.809376 60.427086 37.075 60.34896Q37.45 60.239586 37.621876 59.989586Q37.809376 59.739586 37.809376 59.364586Q37.809376 59.00521 37.6375 58.739586Q37.465626 58.47396 37.1375 58.38021Q36.825 58.270836 36.059376 58.270836L34.6375 58.270836L34.6375 60.427086ZM34.6375 63.739586L36.41875 63.739586Q36.871876 63.739586 37.059376 63.708336Q37.3875 63.645836 37.60625 63.50521Q37.825 63.364586 37.965626 63.114586Q38.10625 62.84896 38.10625 62.50521Q38.10625 62.114586 37.903126 61.81771Q37.7 61.520836 37.325 61.395836Q36.965626 61.270836 36.278126 61.270836L34.6375 61.270836L34.6375 63.739586ZM42.73125 64.583336L42.73125 61.552086L39.98125 57.427086L41.1375 57.427086L42.54375 59.583336Q42.934376 60.19271 43.278126 60.78646Q43.590626 60.239586 44.059376 59.53646L45.434376 57.427086L46.54375 57.427086L43.684376 61.552086L43.684376 64.583336L42.73125 64.583336ZM47.715626 64.583336L47.715626 57.427086L50.184376 57.427086Q51.028126 57.427086 51.465626 57.520836Q52.075 57.66146 52.5125 58.03646Q53.075 58.520836 53.35625 59.270836Q53.6375 60.00521 53.6375 60.958336Q53.6375 61.78646 53.45 62.41146Q53.2625 63.03646 52.965626 63.458336Q52.66875 63.864586 52.309376 64.09896Q51.95 64.333336 51.45 64.458336Q50.95 64.583336 50.309376 64.583336L47.715626 64.583336ZM48.66875 63.739586L50.2 63.739586Q50.903126 63.739586 51.309376 63.614586Q51.715626 63.47396 51.95 63.239586Q52.29375 62.895836 52.48125 62.333336Q52.66875 61.75521 52.66875 60.94271Q52.66875 59.833336 52.29375 59.22396Q51.91875 58.614586 51.403126 58.41146Q51.0125 58.270836 50.16875 58.270836L48.66875 58.270836L48.66875 63.739586ZM57.403126 62.28646L58.29375 62.208336Q58.35625 62.739586 58.590626 63.083336Q58.825 63.427086 59.309376 63.645836Q59.79375 63.84896 60.403126 63.84896Q60.95 63.84896 61.35625 63.69271Q61.778126 63.53646 61.98125 63.25521Q62.184376 62.97396 62.184376 62.645836Q62.184376 62.302086 61.98125 62.052086Q61.79375 61.802086 61.340626 61.63021Q61.059376 61.520836 60.075 61.28646Q59.090626 61.03646 58.684376 60.833336Q58.16875 60.56771 57.91875 60.177086Q57.66875 59.770836 57.66875 59.270836Q57.66875 58.739586 57.98125 58.270836Q58.29375 57.78646 58.871876 57.552086Q59.465626 57.302086 60.2 57.302086Q60.98125 57.302086 61.590626 57.56771Q62.2 57.81771 62.528126 58.31771Q62.85625 58.81771 62.8875 59.44271L61.98125 59.50521Q61.903126 58.833336 61.48125 58.489586Q61.059376 58.13021 60.23125 58.13021Q59.371876 58.13021 58.98125 58.458336Q58.590626 58.770836 58.590626 59.208336Q58.590626 59.59896 58.871876 59.84896Q59.1375 60.09896 60.29375 60.364586Q61.45 60.614586 61.871876 60.81771Q62.496876 61.09896 62.79375 61.552086Q63.090626 61.989586 63.090626 62.56771Q63.090626 63.13021 62.7625 63.645836Q62.45 64.145836 61.825 64.427086Q61.215626 64.708336 60.45 64.708336Q59.48125 64.708336 58.825 64.427086Q58.16875 64.145836 57.79375 63.583336Q57.41875 63.00521 57.403126 62.28646ZM67.99687 63.94271Q67.5125 64.364586 67.05937 64.53646Q66.60625 64.708336 66.09062 64.708336Q65.23125 64.708336 64.7625 64.28646Q64.30937 63.864586 64.30937 63.208336Q64.30937 62.833336 64.48125 62.520836Q64.65312 62.208336 64.93437 62.020836Q65.21562 61.81771 65.575 61.72396Q65.825 61.66146 66.35625 61.59896Q67.41875 61.47396 67.91875 61.28646Q67.91875 61.114586 67.91875 61.06771Q67.91875 60.520836 67.66875 60.302086Q67.34062 60.00521 66.66875 60.00521Q66.05937 60.00521 65.7625 60.22396Q65.46562 60.44271 65.325 60.989586L64.46562 60.88021Q64.575 60.31771 64.84062 59.989586Q65.12187 59.645836 65.62187 59.47396Q66.1375 59.28646 66.80937 59.28646Q67.46562 59.28646 67.87187 59.44271Q68.29375 59.59896 68.48125 59.833336Q68.68437 60.06771 68.7625 60.427086Q68.80937 60.645836 68.80937 61.239586L68.80937 62.41146Q68.80937 63.63021 68.85625 63.958336Q68.91875 64.28646 69.09062 64.583336L68.16875 64.583336Q68.02812 64.302086 67.99687 63.94271ZM67.91875 61.97396Q67.43437 62.177086 66.48125 62.31771Q65.95 62.395836 65.71562 62.489586Q65.49687 62.583336 65.37187 62.770836Q65.24687 62.958336 65.24687 63.19271Q65.24687 63.53646 65.5125 63.770836Q65.77812 64.00521 66.29375 64.00521Q66.80937 64.00521 67.2 63.78646Q67.59062 63.56771 67.77812 63.177086Q67.91875 62.88021 67.91875 62.302086L67.91875 61.97396ZM70.59062 64.583336L70.59062 57.427086L71.46562 57.427086L71.46562 64.583336L70.59062 64.583336ZM77.15312 62.91146L78.075 63.020836Q77.85625 63.81771 77.2625 64.270836Q76.68437 64.708336 75.79375 64.708336Q74.65312 64.708336 73.98125 64.00521Q73.30937 63.302086 73.30937 62.03646Q73.30937 60.72396 73.98125 60.00521Q74.66875 59.28646 75.73125 59.28646Q76.77812 59.28646 77.43437 59.989586Q78.09062 60.69271 78.09062 61.97396Q78.09062 62.052086 78.09062 62.208336L74.23125 62.208336Q74.27812 63.06771 74.7 63.520836Q75.1375 63.97396 75.79375 63.97396Q76.27812 63.97396 76.62187 63.72396Q76.96562 63.47396 77.15312 62.91146ZM74.27812 61.489586L77.16875 61.489586Q77.10625 60.833336 76.84062 60.50521Q76.41875 60.00521 75.74687 60.00521Q75.1375 60.00521 74.73125 60.41146Q74.325 60.81771 74.27812 61.489586ZM79.2625 63.03646L80.12187 62.895836Q80.2 63.427086 80.52812 63.708336Q80.87187 63.97396 81.46562 63.97396Q82.075 63.97396 82.37187 63.739586Q82.66875 63.489586 82.66875 63.145836Q82.66875 62.84896 82.40312 62.677086Q82.21562 62.56771 81.49687 62.38021Q80.54375 62.145836 80.16875 61.97396Q79.79375 61.78646 79.59062 61.47396Q79.40312 61.16146 79.40312 60.770836Q79.40312 60.427086 79.55937 60.13021Q79.71562 59.833336 79.99687 59.645836Q80.2 59.489586 80.54375 59.395836Q80.90312 59.28646 81.30937 59.28646Q81.91875 59.28646 82.37187 59.458336Q82.84062 59.63021 83.05937 59.94271Q83.29375 60.239586 83.37187 60.739586L82.5125 60.84896Q82.45 60.458336 82.16875 60.239586Q81.8875 60.00521 81.37187 60.00521Q80.77812 60.00521 80.5125 60.208336Q80.24687 60.395836 80.24687 60.677086Q80.24687 60.84896 80.35625 60.97396Q80.46562 61.114586 80.7 61.208336Q80.825 61.25521 81.48125 61.44271Q82.40312 61.69271 82.7625 61.84896Q83.1375 62.00521 83.34062 62.31771Q83.55937 62.614586 83.55937 63.052086Q83.55937 63.50521 83.30937 63.895836Q83.05937 64.270836 82.575 64.489586Q82.09062 64.708336 81.48125 64.708336Q80.46562 64.708336 79.93437 64.28646Q79.40312 63.864586 79.2625 63.03646ZM88.29375 66.69271Q87.55937 65.770836 87.05937 64.53646Q86.55937 63.302086 86.55937 61.989586Q86.55937 60.833336 86.93437 59.770836Q87.37187 58.520836 88.29375 57.302086L88.91875 57.302086Q88.325 58.31771 88.1375 58.75521Q87.84062 59.427086 87.66875 60.16146Q87.46562 61.06771 87.46562 61.989586Q87.46562 64.34896 88.91875 66.69271L88.29375 66.69271ZM89.7 64.583336L89.7 57.427086L91.12187 57.427086L92.80937 62.489586Q93.04375 63.208336 93.15312 63.552086Q93.27812 63.16146 93.52812 62.41146L95.24687 57.427086L96.52812 57.427086L96.52812 64.583336L95.60625 64.583336L95.60625 58.59896L93.52812 64.583336L92.66875 64.583336L90.60625 58.489586L90.60625 64.583336L89.7 64.583336ZM99.18437 66.69271L98.55937 66.69271Q100.0125 64.34896 100.0125 61.989586Q100.0125 61.083336 99.80937 60.177086Q99.6375 59.44271 99.34062 58.770836Q99.15312 58.333336 98.55937 57.302086L99.18437 57.302086Q100.10625 58.520836 100.54375 59.770836Q100.91875 60.833336 100.91875 61.989586Q100.91875 63.302086 100.40312 64.53646Q99.90312 65.770836 99.18437 66.69271Z" fill-rule="nonzero"/><path stroke="#963c4c" stroke-width="4.0" stroke-linecap="butt" d="M116.95 61.083332L128.95 61.083332" fill-rule="nonzero"/><path fill="#1a1a1a" d="M137.71562 64.583336L137.71562 57.427086L138.68437 57.427086L142.45 63.052086L142.45 57.427086L143.35625 57.427086L143.35625 64.583336L142.3875 64.583336L138.62187 58.958336L138.62187 64.583336L137.71562 64.583336ZM146.73125 64.583336L146.73125 61.552086L143.98125 57.427086L145.1375 57.427086L146.54375 59.583336Q146.93437 60.19271 147.27812 60.78646Q147.59062 60.239586 148.05937 59.53646L149.43437 57.427086L150.54375 57.427086L147.68437 61.552086L147.68437 64.583336L146.73125 64.583336ZM153.54375 64.583336L153.54375 58.270836L151.18437 58.270836L151.18437 57.427086L156.85625 57.427086L156.85625 58.270836L154.49687 58.270836L154.49687 64.583336L153.54375 64.583336ZM160.93437 64.583336L163.68437 57.427086L164.7 57.427086L167.6375 64.583336L166.55937 64.583336L165.71562 62.41146L162.73125 62.41146L161.93437 64.583336L160.93437 64.583336ZM162.99687 61.645836L165.43437 61.645836L164.68437 59.66146Q164.34062 58.75521 164.16875 58.177086Q164.04375 58.864586 163.79375 59.53646L162.99687 61.645836ZM168.60625 64.583336L168.60625 59.395836L169.3875 59.395836L169.3875 60.177086Q169.7 59.63021 169.95 59.458336Q170.2 59.28646 170.5125 59.28646Q170.96562 59.28646 171.41875 59.56771L171.12187 60.38021Q170.79375 60.19271 170.46562 60.19271Q170.18437 60.19271 169.95 60.364586Q169.71562 60.53646 169.62187 60.84896Q169.48125 61.31771 169.48125 61.864586L169.48125 64.583336L168.60625 64.583336ZM173.52812 63.802086L173.65312 64.56771Q173.27812 64.645836 172.99687 64.645836Q172.5125 64.645836 172.24687 64.50521Q171.98125 64.34896 171.87187 64.09896Q171.77812 63.84896 171.77812 63.06771L171.77812 60.083336L171.12187 60.083336L171.12187 59.395836L171.77812 59.395836L171.77812 58.114586L172.6375 57.583336L172.6375 59.395836L173.52812 59.395836L173.52812 60.083336L172.6375 60.083336L172.6375 63.114586Q172.6375 63.489586 172.68437 63.59896Q172.73125 63.708336 172.84062 63.770836Q172.95 63.833336 173.1375 63.833336Q173.29375 63.833336 173.52812 63.802086ZM174.62187 58.44271L174.62187 57.427086L175.49687 57.427086L175.49687 58.44271L174.62187 58.44271ZM174.62187 64.583336L174.62187 59.395836L175.49687 59.395836L175.49687 64.583336L174.62187 64.583336ZM180.99687 62.677086L181.85625 62.802086Q181.71562 63.69271 181.12187 64.208336Q180.54375 64.708336 179.7 64.708336Q178.6375 64.708336 177.98125 64.00521Q177.34062 63.302086 177.34062 62.00521Q177.34062 61.177086 177.62187 60.552086Q177.90312 59.91146 178.46562 59.59896Q179.02812 59.28646 179.7 59.28646Q180.54375 59.28646 181.075 59.708336Q181.62187 60.13021 181.77812 60.927086L180.91875 61.052086Q180.79375 60.53646 180.48125 60.270836Q180.18437 60.00521 179.73125 60.00521Q179.075 60.00521 178.65312 60.489586Q178.24687 60.958336 178.24687 61.989586Q178.24687 63.03646 178.6375 63.50521Q179.04375 63.97396 179.68437 63.97396Q180.2 63.97396 180.54375 63.66146Q180.90312 63.34896 180.99687 62.677086ZM183.59062 64.583336L183.59062 57.427086L184.46562 57.427086L184.46562 64.583336L183.59062 64.583336ZM190.15312 62.91146L191.075 63.020836Q190.85625 63.81771 190.2625 64.270836Q189.68437 64.708336 188.79375 64.708336Q187.65312 64.708336 186.98125 64.00521Q186.30937 63.302086 186.30937 62.03646Q186.30937 60.72396 186.98125 60.00521Q187.66875 59.28646 188.73125 59.28646Q189.77812 59.28646 190.43437 59.989586Q191.09062 60.69271 191.09062 61.97396Q191.09062 62.052086 191.09062 62.208336L187.23125 62.208336Q187.27812 63.06771 187.7 63.520836Q188.1375 63.97396 188.79375 63.97396Q189.27812 63.97396 189.62187 63.72396Q189.96562 63.47396 190.15312 62.91146ZM187.27812 61.489586L190.16875 61.489586Q190.10625 60.833336 189.84062 60.50521Q189.41875 60.00521 188.74687 60.00521Q188.1375 60.00521 187.73125 60.41146Q187.325 60.81771 187.27812 61.489586ZM195.7 64.583336L195.7 57.427086L197.12187 57.427086L198.80937 62.489586Q199.04375 63.208336 199.15312 63.552086Q199.27812 63.16146 199.52812 62.41146L201.24687 57.427086L202.52812 57.427086L202.52812 64.583336L201.60625 64.583336L201.60625 58.59896L199.52812 64.583336L198.66875 64.583336L196.60625 58.489586L196.60625 64.583336L195.7 64.583336ZM208.15312 62.91146L209.075 63.020836Q208.85625 63.81771 208.2625 64.270836Q207.68437 64.708336 206.79375 64.708336Q205.65312 64.708336 204.98125 64.00521Q204.30937 63.302086 204.30937 62.03646Q204.30937 60.72396 204.98125 60.00521Q205.66875 59.28646 206.73125 59.28646Q207.77812 59.28646 208.43437 59.989586Q209.09062 60.69271 209.09062 61.97396Q209.09062 62.052086 209.09062 62.208336L205.23125 62.208336Q205.27812 63.06771 205.7 63.520836Q206.1375 63.97396 206.79375 63.97396Q207.27812 63.97396 207.62187 63.72396Q207.96562 63.47396 208.15312 62.91146ZM205.27812 61.489586L208.16875 61.489586Q208.10625 60.833336 207.84062 60.50521Q207.41875 60.00521 206.74687 60.00521Q206.1375 60.00521 205.73125 60.41146Q205.325 60.81771 205.27812 61.489586ZM210.60625 64.583336L210.60625 59.395836L211.40312 59.395836L211.40312 60.13021Q211.96562 59.28646 213.04375 59.28646Q213.5125 59.28646 213.90312 59.458336Q214.30937 59.614586 214.49687 59.895836Q214.7 60.16146 214.77812 60.53646Q214.825 60.78646 214.825 61.395836L214.825 64.583336L213.95 64.583336L213.95 61.427086Q213.95 60.895836 213.84062 60.63021Q213.74687 60.364586 213.48125 60.208336Q213.21562 60.03646 212.87187 60.03646Q212.30937 60.03646 211.8875 60.395836Q211.48125 60.75521 211.48125 61.75521L211.48125 64.583336L210.60625 64.583336ZM218.52812 63.802086L218.65312 64.56771Q218.27812 64.645836 217.99687 64.645836Q217.5125 64.645836 217.24687 64.50521Q216.98125 64.34896 216.87187 64.09896Q216.77812 63.84896 216.77812 63.06771L216.77812 60.083336L216.12187 60.083336L216.12187 59.395836L216.77812 59.395836L216.77812 58.114586L217.6375 57.583336L217.6375 59.395836L218.52812 59.395836L218.52812 60.083336L217.6375 60.083336L217.6375 63.114586Q217.6375 63.489586 217.68437 63.59896Q217.73125 63.708336 217.84062 63.770836Q217.95 63.833336 218.1375 63.833336Q218.29375 63.833336 218.52812 63.802086ZM219.62187 58.44271L219.62187 57.427086L220.49687 57.427086L220.49687 58.44271L219.62187 58.44271ZM219.62187 64.583336L219.62187 59.395836L220.49687 59.395836L220.49687 64.583336L219.62187 64.583336ZM222.27812 61.989586Q222.27812 60.552086 223.09062 59.84896Q223.74687 59.28646 224.71562 59.28646Q225.77812 59.28646 226.45 59.989586Q227.1375 60.677086 227.1375 61.91146Q227.1375 62.91146 226.84062 63.489586Q226.54375 64.06771 225.96562 64.395836Q225.3875 64.708336 224.71562 64.708336Q223.62187 64.708336 222.95 64.00521Q222.27812 63.302086 222.27812 61.989586ZM223.18437 61.989586Q223.18437 62.989586 223.62187 63.489586Q224.05937 63.97396 224.71562 63.97396Q225.37187 63.97396 225.79375 63.47396Q226.23125 62.97396 226.23125 61.958336Q226.23125 61.00521 225.79375 60.50521Q225.35625 60.00521 224.71562 60.00521Q224.05937 60.00521 223.62187 60.50521Q223.18437 60.989586 223.18437 61.989586ZM228.60625 64.583336L228.60625 59.395836L229.40312 59.395836L229.40312 60.13021Q229.96562 59.28646 231.04375 59.28646Q231.5125 59.28646 231.90312 59.458336Q232.30937 59.614586 232.49687 59.895836Q232.7 60.16146 232.77812 60.53646Q232.825 60.78646 232.825 61.395836L232.825 64.583336L231.95 64.583336L231.95 61.427086Q231.95 60.895836 231.84062 60.63021Q231.74687 60.364586 231.48125 60.208336Q231.21562 60.03646 230.87187 60.03646Q230.30937 60.03646 229.8875 60.395836Q229.48125 60.75521 229.48125 61.75521L229.48125 64.583336L228.60625 64.583336ZM234.2625 63.03646L235.12187 62.895836Q235.2 63.427086 235.52812 63.708336Q235.87187 63.97396 236.46562 63.97396Q237.075 63.97396 237.37187 63.739586Q237.66875 63.489586 237.66875 63.145836Q237.66875 62.84896 237.40312 62.677086Q237.21562 62.56771 236.49687 62.38021Q235.54375 62.145836 235.16875 61.97396Q234.79375 61.78646 234.59062 61.47396Q234.40312 61.16146 234.40312 60.770836Q234.40312 60.427086 234.55937 60.13021Q234.71562 59.833336 234.99687 59.645836Q235.2 59.489586 235.54375 59.395836Q235.90312 59.28646 236.30937 59.28646Q236.91875 59.28646 237.37187 59.458336Q237.84062 59.63021 238.05937 59.94271Q238.29375 60.239586 238.37187 60.739586L237.5125 60.84896Q237.45 60.458336 237.16875 60.239586Q236.8875 60.00521 236.37187 60.00521Q235.77812 60.00521 235.5125 60.208336Q235.24687 60.395836 235.24687 60.677086Q235.24687 60.84896 235.35625 60.97396Q235.46562 61.114586 235.7 61.208336Q235.825 61.25521 236.48125 61.44271Q237.40312 61.69271 237.7625 61.84896Q238.1375 62.00521 238.34062 62.31771Q238.55937 62.614586 238.55937 63.052086Q238.55937 63.50521 238.30937 63.895836Q238.05937 64.270836 237.575 64.489586Q237.09062 64.708336 236.48125 64.708336Q235.46562 64.708336 234.93437 64.28646Q234.40312 63.864586 234.2625 63.03646Z" fill-rule="nonzero"/><path fill="#000000" d="M16.23125 25.95L16.23125 17.621876L13.246875 17.621876L13.246875 15.934376L21.215626 15.934376L21.215626 17.621876L18.246876 17.621876L18.246876 25.95L16.23125 25.95ZM23.871876 15.934376L23.871876 19.60625Q24.79375 18.528126 26.090626 18.528126Q26.746876 18.528126 27.278126 18.778126Q27.825 19.0125 28.090626 19.403126Q28.35625 19.778126 28.45 20.246876Q28.559376 20.715626 28.559376 21.684376L28.559376 25.95L26.6375 25.95L26.6375 22.121876Q26.6375 20.965626 26.528126 20.66875Q26.41875 20.35625 26.1375 20.184376Q25.871876 19.996876 25.45 19.996876Q24.965626 19.996876 24.590626 20.23125Q24.215626 20.465626 24.04375 20.934376Q23.871876 21.403126 23.871876 22.309376L23.871876 25.95L21.95 25.95L21.95 15.934376L23.871876 15.934376ZM35.153126 23.6375L37.075 23.965626Q36.7 25.0125 35.903126 25.575Q35.10625 26.121876 33.91875 26.121876Q32.028126 26.121876 31.10625 24.871876Q30.3875 23.8875 30.3875 22.371876Q30.3875 20.575 31.325 19.559376Q32.278126 18.528126 33.73125 18.528126Q35.340626 18.528126 36.278126 19.60625Q37.215626 20.66875 37.16875 22.871876L32.35625 22.871876Q32.3875 23.73125 32.825 24.215626Q33.278126 24.684376 33.934376 24.684376Q34.3875 24.684376 34.684376 24.434376Q34.996876 24.184376 35.153126 23.6375ZM35.2625 21.7Q35.246876 20.85625 34.840626 20.434376Q34.434376 19.996876 33.840626 19.996876Q33.215626 19.996876 32.79375 20.45Q32.3875 20.91875 32.403126 21.7L35.2625 21.7ZM50.278126 20.840626L48.3875 21.184376Q48.29375 20.60625 47.95 20.325Q47.621876 20.04375 47.075 20.04375Q46.35625 20.04375 45.934376 20.54375Q45.5125 21.028126 45.5125 22.184376Q45.5125 23.48125 45.934376 24.0125Q46.371876 24.54375 47.10625 24.54375Q47.653126 24.54375 47.996876 24.23125Q48.35625 23.91875 48.496876 23.16875L50.3875 23.48125Q50.090626 24.79375 49.246876 25.465626Q48.41875 26.121876 47.0125 26.121876Q45.41875 26.121876 44.465626 25.121876Q43.528126 24.10625 43.528126 22.325Q43.528126 20.528126 44.48125 19.528126Q45.434376 18.528126 47.059376 18.528126Q48.371876 18.528126 49.153126 19.10625Q49.95 19.66875 50.278126 20.840626ZM53.3875 20.903126L51.653126 20.590626Q51.934376 19.54375 52.653126 19.04375Q53.371876 18.528126 54.79375 18.528126Q56.075 18.528126 56.7 18.840626Q57.340626 19.1375 57.590626 19.60625Q57.840626 20.075 57.840626 21.325L57.825 23.559376Q57.825 24.528126 57.91875 24.98125Q58.0125 25.434376 58.2625 25.95L56.371876 25.95Q56.29375 25.7625 56.184376 25.3875Q56.1375 25.215626 56.10625 25.153126Q55.621876 25.6375 55.059376 25.8875Q54.496876 26.121876 53.85625 26.121876Q52.746876 26.121876 52.090626 25.5125Q51.45 24.903126 51.45 23.965626Q51.45 23.35625 51.746876 22.871876Q52.04375 22.3875 52.559376 22.1375Q53.090626 21.871876 54.090626 21.684376Q55.434376 21.434376 55.965626 21.215626L55.965626 21.028126Q55.965626 20.465626 55.684376 20.23125Q55.41875 19.996876 54.653126 19.996876Q54.1375 19.996876 53.85625 20.2Q53.575 20.403126 53.3875 20.903126ZM55.965626 22.465626Q55.590626 22.590626 54.79375 22.7625Q53.996876 22.934376 53.746876 23.090626Q53.371876 23.35625 53.371876 23.7625Q53.371876 24.16875 53.66875 24.465626Q53.965626 24.7625 54.434376 24.7625Q54.95 24.7625 55.434376 24.41875Q55.778126 24.153126 55.8875 23.778126Q55.965626 23.54375 55.965626 22.840626L55.965626 22.465626ZM61.79375 25.95L59.871876 25.95L59.871876 18.684376L61.653126 18.684376L61.653126 19.715626Q62.121876 18.996876 62.48125 18.7625Q62.840626 18.528126 63.309376 18.528126Q63.965626 18.528126 64.575 18.8875L63.98125 20.559376Q63.496876 20.246876 63.075 20.246876Q62.66875 20.246876 62.3875 20.48125Q62.121876 20.7 61.95 21.278126Q61.79375 21.85625 61.79375 23.7L61.79375 25.95ZM76.27812 20.840626L74.3875 21.184376Q74.29375 20.60625 73.95 20.325Q73.62187 20.04375 73.075 20.04375Q72.35625 20.04375 71.93437 20.54375Q71.5125 21.028126 71.5125 22.184376Q71.5125 23.48125 71.93437 24.0125Q72.37187 24.54375 73.10625 24.54375Q73.65312 24.54375 73.99687 24.23125Q74.35625 23.91875 74.49687 23.16875L76.3875 23.48125Q76.09062 24.79375 75.24687 25.465626Q74.41875 26.121876 73.0125 26.121876Q71.41875 26.121876 70.46562 25.121876Q69.52812 24.10625 69.52812 22.325Q69.52812 20.528126 70.48125 19.528126Q71.43437 18.528126 73.05937 18.528126Q74.37187 18.528126 75.15312 19.10625Q75.95 19.66875 76.27812 20.840626ZM77.5125 22.215626Q77.5125 21.2625 77.98125 20.371876Q78.45 19.465626 79.30937 18.996876Q80.18437 18.528126 81.24687 18.528126Q82.90312 18.528126 83.95 19.60625Q84.99687 20.66875 84.99687 22.29375Q84.99687 23.95 83.93437 25.04375Q82.87187 26.121876 81.2625 26.121876Q80.2625 26.121876 79.35625 25.66875Q78.45 25.215626 77.98125 24.340626Q77.5125 23.465626 77.5125 22.215626ZM79.48125 22.325Q79.48125 23.403126 79.99687 23.98125Q80.5125 24.54375 81.2625 24.54375Q82.0125 24.54375 82.5125 23.98125Q83.02812 23.403126 83.02812 22.309376Q83.02812 21.246876 82.5125 20.66875Q82.0125 20.090626 81.2625 20.090626Q80.5125 20.090626 79.99687 20.66875Q79.48125 21.246876 79.48125 22.325ZM86.80937 18.684376L88.575 18.684376L88.575 19.684376Q89.52812 18.528126 90.84062 18.528126Q91.54375 18.528126 92.05937 18.825Q92.575 19.10625 92.90312 19.684376Q93.37187 19.10625 93.91875 18.825Q94.48125 18.528126 95.10625 18.528126Q95.90312 18.528126 96.45 18.85625Q97.0125 19.16875 97.29375 19.809376Q97.49687 20.2625 97.49687 21.309376L97.49687 25.95L95.575 25.95L95.575 21.79375Q95.575 20.715626 95.37187 20.403126Q95.10625 19.996876 94.54375 19.996876Q94.15312 19.996876 93.79375 20.246876Q93.43437 20.48125 93.27812 20.965626Q93.12187 21.434376 93.12187 22.465626L93.12187 25.95L91.2 25.95L91.2 21.965626Q91.2 20.91875 91.09062 20.60625Q90.99687 20.29375 90.77812 20.153126Q90.55937 19.996876 90.2 19.996876Q89.74687 19.996876 89.3875 20.246876Q89.04375 20.48125 88.8875 20.934376Q88.73125 21.371876 88.73125 22.41875L88.73125 25.95L86.80937 25.95L86.80937 18.684376ZM98.90312 18.684376L100.68437 18.684376L100.68437 19.7625Q101.04375 19.215626 101.6375 18.871876Q102.23125 18.528126 102.95 18.528126Q104.21562 18.528126 105.09062 19.528126Q105.98125 20.5125 105.98125 22.278126Q105.98125 24.090626 105.09062 25.10625Q104.2 26.121876 102.93437 26.121876Q102.34062 26.121876 101.84062 25.8875Q101.35625 25.6375 100.825 25.059376L100.825 28.715626L98.90312 28.715626L98.90312 18.684376ZM100.79375 22.2Q100.79375 23.41875 101.27812 24.0125Q101.77812 24.590626 102.46562 24.590626Q103.1375 24.590626 103.575 24.059376Q104.02812 23.5125 104.02812 22.29375Q104.02812 21.153126 103.55937 20.60625Q103.10625 20.04375 102.43437 20.04375Q101.73125 20.04375 101.2625 20.590626Q100.79375 21.1375 100.79375 22.2ZM109.3875 20.903126L107.65312 20.590626Q107.93437 19.54375 108.65312 19.04375Q109.37187 18.528126 110.79375 18.528126Q112.075 18.528126 112.7 18.840626Q113.34062 19.1375 113.59062 19.60625Q113.84062 20.075 113.84062 21.325L113.825 23.559376Q113.825 24.528126 113.91875 24.98125Q114.0125 25.434376 114.2625 25.95L112.37187 25.95Q112.29375 25.7625 112.18437 25.3875Q112.1375 25.215626 112.10625 25.153126Q111.62187 25.6375 111.05937 25.8875Q110.49687 26.121876 109.85625 26.121876Q108.74687 26.121876 108.09062 25.5125Q107.45 24.903126 107.45 23.965626Q107.45 23.35625 107.74687 22.871876Q108.04375 22.3875 108.55937 22.1375Q109.09062 21.871876 110.09062 21.684376Q111.43437 21.434376 111.96562 21.215626L111.96562 21.028126Q111.96562 20.465626 111.68437 20.23125Q111.41875 19.996876 110.65312 19.996876Q110.1375 19.996876 109.85625 20.2Q109.575 20.403126 109.3875 20.903126ZM111.96562 22.465626Q111.59062 22.590626 110.79375 22.7625Q109.99687 22.934376 109.74687 23.090626Q109.37187 23.35625 109.37187 23.7625Q109.37187 24.16875 109.66875 24.465626Q109.96562 24.7625 110.43437 24.7625Q110.95 24.7625 111.43437 24.41875Q111.77812 24.153126 111.8875 23.778126Q111.96562 23.54375 111.96562 22.840626L111.96562 22.465626ZM122.55937 25.95L120.6375 25.95L120.6375 22.246876Q120.6375 21.075 120.5125 20.73125Q120.3875 20.371876 120.10625 20.184376Q119.84062 19.996876 119.45 19.996876Q118.95 19.996876 118.54375 20.278126Q118.15312 20.54375 117.99687 20.996876Q117.85625 21.45 117.85625 22.66875L117.85625 25.95L115.93437 25.95L115.93437 18.684376L117.73125 18.684376L117.73125 19.7625Q118.66875 18.528126 120.12187 18.528126Q120.74687 18.528126 121.27812 18.7625Q121.80937 18.98125 122.075 19.340626Q122.34062 19.7 122.45 20.153126Q122.55937 20.590626 122.55937 21.434376L122.55937 25.95ZM124.04375 18.684376L126.09062 18.684376L127.825 23.840626L129.52812 18.684376L131.5125 18.684376L128.95 25.66875L128.49687 26.934376Q128.23125 27.575 127.99687 27.903126Q127.77812 28.246876 127.48125 28.45Q127.18437 28.66875 126.74687 28.778126Q126.30937 28.903126 125.7625 28.903126Q125.21562 28.903126 124.68437 28.778126L124.5125 27.278126Q124.96562 27.371876 125.325 27.371876Q125.99687 27.371876 126.30937 26.965626Q126.6375 26.575 126.80937 25.965626L124.04375 18.684376ZM135.04375 18.684376L137.09062 18.684376L138.825 23.840626L140.52812 18.684376L142.5125 18.684376L139.95 25.66875L139.49687 26.934376Q139.23125 27.575 138.99687 27.903126Q138.77812 28.246876 138.48125 28.45Q138.18437 28.66875 137.74687 28.778126Q137.30937 28.903126 136.7625 28.903126Q136.21562 28.903126 135.68437 28.778126L135.5125 27.278126Q135.96562 27.371876 136.325 27.371876Q136.99687 27.371876 137.30937 26.965626Q137.6375 26.575 137.80937 25.965626L135.04375 18.684376ZM142.5125 22.215626Q142.5125 21.2625 142.98125 20.371876Q143.45 19.465626 144.30937 18.996876Q145.18437 18.528126 146.24687 18.528126Q147.90312 18.528126 148.95 19.60625Q149.99687 20.66875 149.99687 22.29375Q149.99687 23.95 148.93437 25.04375Q147.87187 26.121876 146.2625 26.121876Q145.2625 26.121876 144.35625 25.66875Q143.45 25.215626 142.98125 24.340626Q142.5125 23.465626 142.5125 22.215626ZM144.48125 22.325Q144.48125 23.403126 144.99687 23.98125Q145.5125 24.54375 146.2625 24.54375Q147.0125 24.54375 147.5125 23.98125Q148.02812 23.403126 148.02812 22.309376Q148.02812 21.246876 147.5125 20.66875Q147.0125 20.090626 146.2625 20.090626Q145.5125 20.090626 144.99687 20.66875Q144.48125 21.246876 144.48125 22.325ZM156.73125 25.95L156.73125 24.85625Q156.34062 25.45 155.68437 25.79375Q155.04375 26.121876 154.325 26.121876Q153.59062 26.121876 153.0125 25.79375Q152.43437 25.465626 152.16875 24.8875Q151.91875 24.309376 151.91875 23.278126L151.91875 18.684376L153.84062 18.684376L153.84062 22.028126Q153.84062 23.559376 153.93437 23.903126Q154.04375 24.246876 154.325 24.45Q154.60625 24.653126 155.04375 24.653126Q155.52812 24.653126 155.91875 24.3875Q156.30937 24.10625 156.45 23.715626Q156.59062 23.309376 156.59062 21.746876L156.59062 18.684376L158.5125 18.684376L158.5125 25.95L156.73125 25.95ZM160.93437 19.496876L160.575 17.621876L160.575 15.934376L162.66875 15.934376L162.66875 17.621876L162.35625 19.496876L160.93437 19.496876ZM165.95 25.95L163.02812 18.684376L165.04375 18.684376L166.40312 22.3875L166.80937 23.6375Q166.96562 23.153126 166.99687 23.0125Q167.10625 22.7 167.21562 22.3875L168.59062 18.684376L170.55937 18.684376L167.68437 25.95L165.95 25.95ZM177.15312 23.6375L179.075 23.965626Q178.7 25.0125 177.90312 25.575Q177.10625 26.121876 175.91875 26.121876Q174.02812 26.121876 173.10625 24.871876Q172.3875 23.8875 172.3875 22.371876Q172.3875 20.575 173.325 19.559376Q174.27812 18.528126 175.73125 18.528126Q177.34062 18.528126 178.27812 19.60625Q179.21562 20.66875 179.16875 22.871876L174.35625 22.871876Q174.3875 23.73125 174.825 24.215626Q175.27812 24.684376 175.93437 24.684376Q176.3875 24.684376 176.68437 24.434376Q176.99687 24.184376 177.15312 23.6375ZM177.2625 21.7Q177.24687 20.85625 176.84062 20.434376Q176.43437 19.996876 175.84062 19.996876Q175.21562 19.996876 174.79375 20.45Q174.3875 20.91875 174.40312 21.7L177.2625 21.7ZM192.55937 25.95L190.6375 25.95L190.6375 22.246876Q190.6375 21.075 190.5125 20.73125Q190.3875 20.371876 190.10625 20.184376Q189.84062 19.996876 189.45 19.996876Q188.95 19.996876 188.54375 20.278126Q188.15312 20.54375 187.99687 20.996876Q187.85625 21.45 187.85625 22.66875L187.85625 25.95L185.93437 25.95L185.93437 18.684376L187.73125 18.684376L187.73125 19.7625Q188.66875 18.528126 190.12187 18.528126Q190.74687 18.528126 191.27812 18.7625Q191.80937 18.98125 192.075 19.340626Q192.34062 19.7 192.45 20.153126Q192.55937 20.590626 192.55937 21.434376L192.55937 25.95ZM199.15312 23.6375L201.075 23.965626Q200.7 25.0125 199.90312 25.575Q199.10625 26.121876 197.91875 26.121876Q196.02812 26.121876 195.10625 24.871876Q194.3875 23.8875 194.3875 22.371876Q194.3875 20.575 195.325 19.559376Q196.27812 18.528126 197.73125 18.528126Q199.34062 18.528126 200.27812 19.60625Q201.21562 20.66875 201.16875 22.871876L196.35625 22.871876Q196.3875 23.73125 196.825 24.215626Q197.27812 24.684376 197.93437 24.684376Q198.3875 24.684376 198.68437 24.434376Q198.99687 24.184376 199.15312 23.6375ZM199.2625 21.7Q199.24687 20.85625 198.84062 20.434376Q198.43437 19.996876 197.84062 19.996876Q197.21562 19.996876 196.79375 20.45Q196.3875 20.91875 196.40312 21.7L199.2625 21.7ZM205.95 25.95L203.02812 18.684376L205.04375 18.684376L206.40312 22.3875L206.80937 23.6375Q206.96562 23.153126 206.99687 23.0125Q207.10625 22.7 207.21562 22.3875L208.59062 18.684376L210.55937 18.684376L207.68437 25.95L205.95 25.95ZM217.15312 23.6375L219.075 23.965626Q218.7 25.0125 217.90312 25.575Q217.10625 26.121876 215.91875 26.121876Q214.02812 26.121876 213.10625 24.871876Q212.3875 23.8875 212.3875 22.371876Q212.3875 20.575 213.325 19.559376Q214.27812 18.528126 215.73125 18.528126Q217.34062 18.528126 218.27812 19.60625Q219.21562 20.66875 219.16875 22.871876L214.35625 22.871876Q214.3875 23.73125 214.825 24.215626Q215.27812 24.684376 215.93437 24.684376Q216.3875 24.684376 216.68437 24.434376Q216.99687 24.184376 217.15312 23.6375ZM217.2625 21.7Q217.24687 20.85625 216.84062 20.434376Q216.43437 19.996876 215.84062 19.996876Q215.21562 19.996876 214.79375 20.45Q214.3875 20.91875 214.40312 21.7L217.2625 21.7ZM223.79375 25.95L221.87187 25.95L221.87187 18.684376L223.65312 18.684376L223.65312 19.715626Q224.12187 18.996876 224.48125 18.7625Q224.84062 18.528126 225.30937 18.528126Q225.96562 18.528126 226.575 18.8875L225.98125 20.559376Q225.49687 20.246876 225.075 20.246876Q224.66875 20.246876 224.3875 20.48125Q224.12187 20.7 223.95 21.278126Q223.79375 21.85625 223.79375 23.7L223.79375 25.95Z" fill-rule="nonzero"/><path fill="#000000" d="M15.871875 32.934376L15.871875 36.60625Q16.79375 35.528126 18.090626 35.528126Q18.746876 35.528126 19.278126 35.778126Q19.825 36.0125 20.090626 36.403126Q20.35625 36.778126 20.45 37.246876Q20.559376 37.715626 20.559376 38.684376L20.559376 42.95L18.6375 42.95L18.6375 39.121876Q18.6375 37.965626 18.528126 37.66875Q18.41875 37.35625 18.1375 37.184376Q17.871876 36.996876 17.45 36.996876Q16.965626 36.996876 16.590626 37.23125Q16.215626 37.465626 16.04375 37.934376Q15.871875 38.403126 15.871875 39.309376L15.871875 42.95L13.95 42.95L13.95 32.934376L15.871875 32.934376ZM27.153126 40.6375L29.075 40.965626Q28.7 42.0125 27.903126 42.575Q27.10625 43.121876 25.91875 43.121876Q24.028126 43.121876 23.10625 41.871876Q22.3875 40.8875 22.3875 39.371876Q22.3875 37.575 23.325 36.559376Q24.278126 35.528126 25.73125 35.528126Q27.340626 35.528126 28.278126 36.60625Q29.215626 37.66875 29.16875 39.871876L24.35625 39.871876Q24.3875 40.73125 24.825 41.215626Q25.278126 41.684376 25.934376 41.684376Q26.3875 41.684376 26.684376 41.434376Q26.996876 41.184376 27.153126 40.6375ZM27.2625 38.7Q27.246876 37.85625 26.840626 37.434376Q26.434376 36.996876 25.840626 36.996876Q25.215626 36.996876 24.79375 37.45Q24.3875 37.91875 24.403126 38.7L27.2625 38.7ZM33.3875 37.903126L31.653126 37.590626Q31.934376 36.54375 32.653126 36.04375Q33.371876 35.528126 34.79375 35.528126Q36.075 35.528126 36.7 35.840626Q37.340626 36.1375 37.590626 36.60625Q37.840626 37.075 37.840626 38.325L37.825 40.559376Q37.825 41.528126 37.91875 41.98125Q38.0125 42.434376 38.2625 42.95L36.371876 42.95Q36.29375 42.7625 36.184376 42.3875Q36.1375 42.215626 36.10625 42.153126Q35.621876 42.6375 35.059376 42.8875Q34.496876 43.121876 33.85625 43.121876Q32.746876 43.121876 32.090626 42.5125Q31.45 41.903126 31.45 40.965626Q31.45 40.35625 31.746876 39.871876Q32.04375 39.3875 32.559376 39.1375Q33.090626 38.871876 34.090626 38.684376Q35.434376 38.434376 35.965626 38.215626L35.965626 38.028126Q35.965626 37.465626 35.684376 37.23125Q35.41875 36.996876 34.653126 36.996876Q34.1375 36.996876 33.85625 37.2Q33.575 37.403126 33.3875 37.903126ZM35.965626 39.465626Q35.590626 39.590626 34.79375 39.7625Q33.996876 39.934376 33.746876 40.090626Q33.371876 40.35625 33.371876 40.7625Q33.371876 41.16875 33.66875 41.465626Q33.965626 41.7625 34.434376 41.7625Q34.95 41.7625 35.434376 41.41875Q35.778126 41.153126 35.8875 40.778126Q35.965626 40.54375 35.965626 39.840626L35.965626 39.465626ZM41.79375 42.95L39.871876 42.95L39.871876 35.684376L41.653126 35.684376L41.653126 36.715626Q42.121876 35.996876 42.48125 35.7625Q42.840626 35.528126 43.309376 35.528126Q43.965626 35.528126 44.575 35.8875L43.98125 37.559376Q43.496876 37.246876 43.075 37.246876Q42.66875 37.246876 42.3875 37.48125Q42.121876 37.7 41.95 38.278126Q41.79375 38.85625 41.79375 40.7L41.79375 42.95ZM52.60625 42.95L50.825 42.95L50.825 41.8875Q50.3875 42.5125 49.778126 42.825Q49.16875 43.121876 48.559376 43.121876Q47.309376 43.121876 46.41875 42.10625Q45.528126 41.090626 45.528126 39.29375Q45.528126 37.45 46.3875 36.496876Q47.2625 35.528126 48.590626 35.528126Q49.809376 35.528126 50.7 36.54375L50.7 32.934376L52.60625 32.934376L52.60625 42.95ZM47.48125 39.16875Q47.48125 40.325 47.809376 40.840626Q48.278126 41.590626 49.10625 41.590626Q49.7625 41.590626 50.23125 41.028126Q50.7 40.465626 50.7 39.340626Q50.7 38.090626 50.246876 37.54375Q49.79375 36.996876 49.090626 36.996876Q48.403126 36.996876 47.934376 37.54375Q47.48125 38.075 47.48125 39.16875ZM58.5125 39.215626Q58.5125 38.2625 58.98125 37.371876Q59.45 36.465626 60.309376 35.996876Q61.184376 35.528126 62.246876 35.528126Q63.903126 35.528126 64.95 36.60625Q65.99687 37.66875 65.99687 39.29375Q65.99687 40.95 64.93437 42.04375Q63.871876 43.121876 62.2625 43.121876Q61.2625 43.121876 60.35625 42.66875Q59.45 42.215626 58.98125 41.340626Q58.5125 40.465626 58.5125 39.215626ZM60.48125 39.325Q60.48125 40.403126 60.996876 40.98125Q61.5125 41.54375 62.2625 41.54375Q63.0125 41.54375 63.5125 40.98125Q64.02812 40.403126 64.02812 39.309376Q64.02812 38.246876 63.5125 37.66875Q63.0125 37.090626 62.2625 37.090626Q61.5125 37.090626 60.996876 37.66875Q60.48125 38.246876 60.48125 39.325ZM67.12187 35.684376L68.18437 35.684376L68.18437 35.1375Q68.18437 34.23125 68.37187 33.778126Q68.575 33.325 69.09062 33.04375Q69.62187 32.7625 70.41875 32.7625Q71.23125 32.7625 72.02812 32.996876L71.7625 34.340626Q71.30937 34.23125 70.8875 34.23125Q70.46562 34.23125 70.27812 34.434376Q70.10625 34.621876 70.10625 35.184376L70.10625 35.684376L71.54375 35.684376L71.54375 37.2L70.10625 37.2L70.10625 42.95L68.18437 42.95L68.18437 37.2L67.12187 37.2L67.12187 35.684376Z" fill-rule="nonzero"/></svg>